<svg width="5824" height="1274" xmlns="http://www.w3.org/2000/svg" xmlns:xlink="http://www.w3.org/1999/xlink" xml:space="preserve" overflow="hidden"><defs><filter id="fx0" x="-10%" y="-10%" width="120%" height="120%" filterUnits="userSpaceOnUse" primitiveUnits="userSpaceOnUse"><feComponentTransfer color-interpolation-filters="sRGB"><feFuncR type="discrete" tableValues="0.000000 0.000000"/><feFuncG type="discrete" tableValues="0.000000 0.000000"/><feFuncB type="discrete" tableValues="0.000000 0.000000"/><feFuncA type="linear" slope="0.400000" intercept="0.000000"/></feComponentTransfer><feGaussianBlur stdDeviation="6.111111 6.111111"/></filter><clipPath id="clip1"><rect x="-1466" y="747" width="5824" height="1274"/></clipPath><clipPath id="clip2"><rect x="1" y="1" width="0" height="0"/></clipPath><clipPath id="clip3"><rect x="0" y="0" width="89" height="138"/></clipPath></defs><g clip-path="url(#clip1)" transform="translate(1466 -747)"><path d="M2610 1823 4341.53 1823" stroke="#000000" stroke-width="27.5" stroke-linecap="butt" stroke-linejoin="miter" stroke-miterlimit="8" stroke-opacity="1" fill="none" fill-rule="evenodd"/><path d="M3510.39 1009.27 3798.31 1794.9 3748.32 1813.23 3460.39 1027.59Z" fill="#EF0095" fill-rule="nonzero" fill-opacity="1"/><path d="M3749.18 1830.34C3745.29 1812.22 3756.81 1794.39 3774.92 1790.5 3793.04 1786.6 3810.87 1798.13 3814.76 1816.24 3818.66 1834.35 3807.13 1852.19 3789.02 1856.08 3770.91 1859.97 3753.07 1848.45 3749.18 1830.34Z" stroke="#EFBBD8" stroke-width="4.58333" stroke-linecap="butt" stroke-linejoin="miter" stroke-miterlimit="8" stroke-opacity="1" fill="#FDE086" fill-rule="evenodd" fill-opacity="1"/><path d="M3505.02 1024.5 3050.6 1727.07 3005.89 1698.16 3460.31 995.579Z" fill="#1C96F5" fill-rule="nonzero" fill-opacity="1"/><path d="M2981.52 1726.85C2984.17 1708.52 3001.18 1695.8 3019.51 1698.45 3037.85 1701.1 3050.57 1718.11 3047.92 1736.44 3045.27 1754.78 3028.26 1767.49 3009.92 1764.85 2991.59 1762.2 2978.87 1745.19 2981.52 1726.85Z" stroke="#EFBBD8" stroke-width="4.58333" stroke-linecap="butt" stroke-linejoin="miter" stroke-miterlimit="8" stroke-opacity="1" fill="#FDE086" fill-rule="evenodd" fill-opacity="1"/><path d="M3440.5 1015C3440.5 989.871 3460.65 969.5 3485.5 969.5 3510.35 969.5 3530.5 989.871 3530.5 1015 3530.5 1040.13 3510.35 1060.5 3485.5 1060.5 3460.65 1060.5 3440.5 1040.13 3440.5 1015Z" stroke="#EFBBD8" stroke-width="4.58333" stroke-linecap="butt" stroke-linejoin="miter" stroke-miterlimit="8" stroke-opacity="1" fill="#FDE086" fill-rule="evenodd" fill-opacity="1"/><path d="M3481.5 1007.5 3481.5 1552.27" stroke="#000000" stroke-width="6.875" stroke-linecap="butt" stroke-linejoin="miter" stroke-miterlimit="8" stroke-dasharray="27.5 20.625 6.875 20.625" stroke-opacity="1" fill="none" fill-rule="evenodd"/><path d="M3566.67 1228.84C3542.27 1244.76 3512.66 1252.27 3482.58 1250.17" stroke="#000000" stroke-width="4.58333" stroke-linecap="butt" stroke-linejoin="miter" stroke-miterlimit="8" stroke-opacity="1" fill="none" fill-rule="evenodd"/><path d="M3533.35 1158.88C3488.35 1180.8 3434.35 1171.36 3399.45 1135.47" stroke="#000000" stroke-width="4.58333" stroke-linecap="butt" stroke-linejoin="miter" stroke-miterlimit="8" stroke-opacity="1" fill="none" fill-rule="evenodd"/><text fill="#000000" fill-opacity="1" font-family="Cambria Math,Cambria Math_MSFontService,sans-serif" font-style="normal" font-variant="normal" font-weight="400" font-stretch="normal" font-size="83" text-anchor="start" direction="ltr" writing-mode="lr-tb" unicode-bidi="normal" text-decoration="none" transform="translate(3502.36 1329)">𝑞<tspan fill="#000000" fill-opacity="1" font-family="Cambria Math,Cambria Math_MSFontService,sans-serif" font-style="normal" font-variant="normal" font-weight="400" font-stretch="normal" font-size="61" text-anchor="start" direction="ltr" writing-mode="lr-tb" unicode-bidi="normal" text-decoration="none" x="41.1812" y="17">1</tspan><tspan fill="#000000" fill-opacity="1" font-family="Cambria Math,Cambria Math_MSFontService,sans-serif" font-style="normal" font-variant="normal" font-weight="400" font-stretch="normal" font-size="83" text-anchor="start" direction="ltr" writing-mode="lr-tb" unicode-bidi="normal" text-decoration="none" x="-296.535" y="-173">𝑞</tspan><tspan fill="#000000" fill-opacity="1" font-family="Cambria Math,Cambria Math_MSFontService,sans-serif" font-style="normal" font-variant="normal" font-weight="400" font-stretch="normal" font-size="61" text-anchor="start" direction="ltr" writing-mode="lr-tb" unicode-bidi="normal" text-decoration="none" x="-253.451" y="-156">2</tspan><tspan fill="#000000" fill-opacity="1" font-family="Cambria Math,Cambria Math_MSFontService,sans-serif" font-style="normal" font-variant="normal" font-weight="400" font-stretch="normal" font-size="83" text-anchor="start" direction="ltr" writing-mode="lr-tb" unicode-bidi="normal" text-decoration="none" x="-215.089" y="-173">(</tspan>−)</text><path d="M3530.11 1229.13 3568.65 1228.31 3550.23 1262.18Z" fill="#000000" fill-rule="evenodd" fill-opacity="1"/><path d="M3414.57 1170.99 3398.84 1135.78 3437.2 1139.61Z" fill="#000000" fill-rule="evenodd" fill-opacity="1"/><path d="M3481.5 1009.5 3662.98 1499.4" stroke="#000000" stroke-width="6.875" stroke-linecap="butt" stroke-linejoin="miter" stroke-miterlimit="8" stroke-dasharray="27.5 20.625 6.875 20.625" stroke-opacity="1" fill="none" fill-rule="evenodd"/><path d="M0 0 263.199 412.539" stroke="#000000" stroke-width="6.875" stroke-linecap="butt" stroke-linejoin="miter" stroke-miterlimit="8" stroke-dasharray="27.5 20.625 6.875 20.625" stroke-opacity="1" fill="none" fill-rule="evenodd" transform="matrix(-1 0 0 1 3482.7 1010.5)"/><path d="M172.5 1655.06 2334.41 1655.06 2334.41 1661.94 172.5 1661.94ZM2329.83 1644.75 2357.33 1658.5 2329.83 1672.25Z" fill="#FFFFFF" fill-rule="nonzero" fill-opacity="1"/><path d="M1990.01 1616.88C1979.65 1601.2 1983.97 1580.09 1999.65 1569.73L2113.21 1494.72C2128.89 1484.37 2150 1488.68 2160.36 1504.36L2288.92 1699.01C2299.28 1714.69 2294.96 1735.8 2279.28 1746.15L2165.72 1821.16C2150.03 1831.52 2128.93 1827.2 2118.57 1811.52Z" fill="#EF0095" fill-rule="evenodd" fill-opacity="1"/><path d="M3.19914-1.25774 45.6383 106.688 39.24 109.204-3.19914 1.25774ZM53.5587 98.6497 50.8241 129.274 27.9656 108.712Z" fill="#FFFFFF" fill-rule="nonzero" fill-opacity="1" transform="matrix(0.578627 -0.815592 -0.815592 -0.578627 2133.65 1653.43)"/><path d="M503.37 1696.8C513.727 1712.48 509.412 1733.58 493.731 1743.94L380.166 1818.95C364.486 1829.31 343.379 1824.99 333.022 1809.31L204.459 1614.67C194.102 1598.99 198.417 1577.88 214.098 1567.52L327.663 1492.51C343.343 1482.16 364.45 1486.47 374.807 1502.15Z" fill="#EF0095" fill-rule="evenodd" fill-opacity="0.501961"/><path d="M3.19914-1.25774 45.6383 106.688 39.24 109.204-3.19914 1.25774ZM53.5587 98.6497 50.8241 129.274 27.9656 108.712Z" fill="#FFFFFF" fill-rule="nonzero" fill-opacity="1" transform="matrix(-0.578627 0.815592 0.815592 0.578627 359.728 1660.25)"/><path d="M3.4375-1.40678e-06 3.43785 858.931-3.43715 858.931-3.4375 1.40678e-06ZM13.7503 854.347 0.000360892 881.847-13.7497 854.347Z" fill="#000000" fill-rule="nonzero" fill-opacity="1" transform="matrix(1 0 0 -1 1404.5 1897.35)"/><path d="M172.5 1653.06 2334.41 1653.06 2334.41 1659.94 172.5 1659.94ZM2329.83 1642.75 2357.33 1656.5 2329.83 1670.25Z" fill="#FDE086" fill-rule="nonzero" fill-opacity="1"/><text fill="#44546A" fill-opacity="1" font-family="Cambria Math,Cambria Math_MSFontService,sans-serif" font-style="normal" font-variant="normal" font-weight="400" font-stretch="normal" font-size="83" text-anchor="start" direction="ltr" writing-mode="lr-tb" unicode-bidi="normal" text-decoration="none" transform="translate(2384.26 1665)">𝑝<tspan fill="#44546A" fill-opacity="1" font-family="Cambria Math,Cambria Math_MSFontService,sans-serif" font-style="normal" font-variant="normal" font-weight="400" font-stretch="normal" font-size="61" text-anchor="start" direction="ltr" writing-mode="lr-tb" unicode-bidi="normal" text-decoration="none" x="42.6021" y="16">𝑥</tspan><tspan fill="#44546A" fill-opacity="1" font-family="Cambria Math,Cambria Math_MSFontService,sans-serif" font-style="normal" font-variant="normal" font-weight="400" font-stretch="normal" font-size="83" text-anchor="start" direction="ltr" writing-mode="lr-tb" unicode-bidi="normal" text-decoration="none" x="-1006.06" y="-680">𝑝</tspan><tspan fill="#44546A" fill-opacity="1" font-family="Cambria Math,Cambria Math_MSFontService,sans-serif" font-style="normal" font-variant="normal" font-weight="400" font-stretch="normal" font-size="61" text-anchor="start" direction="ltr" writing-mode="lr-tb" unicode-bidi="normal" text-decoration="none" x="-963.462" y="-663">𝑦</tspan><tspan fill="#44546A" fill-opacity="1" font-family="Cambria Math,Cambria Math_MSFontService,sans-serif" font-style="normal" font-variant="normal" font-weight="400" font-stretch="normal" font-size="83" text-anchor="start" direction="ltr" writing-mode="lr-tb" unicode-bidi="normal" text-decoration="none" x="-371.23" y="-132">𝑣</tspan></text><g clip-path="url(#clip2)" filter="url(#fx0)" transform="translate(2117 1605)"><g clip-path="url(#clip3)"><path d="M3.82927 45.8089C7.24856 19.2048 31.5871 0.409932 58.191 3.82925 77.2965 6.28482 93.1451 19.7998 98.5877 38.2776L101.699 38.2776 94.0667 52.0001 81.8326 38.2776 84.8129 38.2776C77.2342 20.1554 56.3996 11.6081 38.2774 19.1868 26.5582 24.0878 18.3424 34.8669 16.7231 47.4661Z" fill="#FEE086" fill-rule="evenodd" fill-opacity="1" transform="matrix(-1.83697e-16 -1 -1 1.83697e-16 71.9998 121.75)"/></g></g><path d="M3.82927 45.8089C7.24856 19.2048 31.5871 0.409932 58.191 3.82925 77.2965 6.28482 93.1451 19.7998 98.5877 38.2776L101.699 38.2776 94.0667 52.0001 81.8326 38.2776 84.8129 38.2776C77.2342 20.1554 56.3996 11.6081 38.2774 19.1868 26.5582 24.0878 18.3424 34.8669 16.7231 47.4661Z" fill="#FEE086" fill-rule="evenodd" fill-opacity="1" transform="matrix(-1.83697e-16 -1 -1 1.83697e-16 2189 1713)"/><text fill="#44546A" fill-opacity="1" font-family="Cambria Math,Cambria Math_MSFontService,sans-serif" font-style="normal" font-variant="normal" font-weight="400" font-stretch="normal" font-size="83" text-anchor="start" direction="ltr" writing-mode="lr-tb" unicode-bidi="normal" text-decoration="none" transform="translate(2176.6 1755)">𝑢</text><path d="M1949.55 1657.28C1785.2 1803.86 1415.1 1855.84 1122.92 1773.4 1023.3 1745.29 941.521 1703.64 887.002 1653.24" stroke="#ED7D31" stroke-width="4.58333" stroke-linecap="butt" stroke-linejoin="miter" stroke-miterlimit="8" stroke-dasharray="18.3333 13.75" stroke-opacity="1" fill="none" fill-rule="evenodd"/><path d="M901.695 1701.68 886.563 1654.95 934.643 1665.02Z" fill="#ED7D31" fill-rule="evenodd" fill-opacity="1"/><path d="M2137.83 1653.79C1852.73 1886.31 1224.11 1965.2 733.776 1830.01 578.122 1787.09 448.997 1725.52 359.348 1651.48" stroke="#ED7D31" stroke-width="5.72917" stroke-linecap="butt" stroke-linejoin="miter" stroke-miterlimit="8" stroke-dasharray="22.9167 17.1875" stroke-opacity="1" fill="none" fill-rule="evenodd"/><path d="M2080.47 1664.07 2136.68 1655.83 2118.53 1709.66Z" fill="#ED7D31" fill-rule="evenodd" fill-opacity="1"/><text fill="#44546A" fill-opacity="1" font-family="Cambria Math,Cambria Math_MSFontService,sans-serif" font-style="normal" font-variant="normal" font-weight="400" font-stretch="normal" font-size="83" text-anchor="start" direction="ltr" writing-mode="lr-tb" unicode-bidi="normal" text-decoration="none" transform="translate(474.855 1770)">𝜃</text><path d="M114.106 5.3878C147.12 17.8106 169 49.543 169 85.0001" stroke="#000000" stroke-width="2.29167" stroke-linecap="butt" stroke-linejoin="miter" stroke-miterlimit="8" stroke-opacity="1" fill="none" fill-rule="evenodd" transform="matrix(1 0 0 -1 303 1751)"/><path d="M0.0301181 82.7345C1.2812 35.8071 40.3377-1.22098 87.2653 0.0301051 96.3212 0.271533 105.28 1.95907 113.803 5.02885" stroke="#000000" stroke-width="2.29167" stroke-linecap="butt" stroke-linejoin="miter" stroke-miterlimit="8" stroke-opacity="1" fill="none" fill-rule="evenodd" transform="matrix(-1 1.22465e-16 1.22465e-16 1 2203 1575)"/><text fill="#44546A" fill-opacity="1" font-family="Cambria Math,Cambria Math_MSFontService,sans-serif" font-style="normal" font-variant="normal" font-weight="400" font-stretch="normal" font-size="83" text-anchor="start" direction="ltr" writing-mode="lr-tb" unicode-bidi="normal" text-decoration="none" transform="translate(2184.78 1585)">𝜃<tspan fill="#44546A" fill-opacity="1" font-family="Cambria Math,Cambria Math_MSFontService,sans-serif" font-style="normal" font-variant="normal" font-weight="400" font-stretch="normal" font-size="61" text-anchor="start" direction="ltr" writing-mode="lr-tb" unicode-bidi="normal" text-decoration="none" x="43.4958" y="17">+</tspan></text><path d="M2143 1653 2143 1923.37" stroke="#000000" stroke-width="2.29167" stroke-linecap="butt" stroke-linejoin="miter" stroke-miterlimit="8" stroke-opacity="1" fill="none" fill-rule="evenodd"/><path d="M354 1653 354 1923.37" stroke="#000000" stroke-width="2.29167" stroke-linecap="butt" stroke-linejoin="miter" stroke-miterlimit="8" stroke-opacity="1" fill="none" fill-rule="evenodd"/><path d="M376.917 1836.85 1381.16 1836.85 1381.16 1839.15 376.917 1839.15ZM381.5 1851.75 354 1838 381.5 1824.25ZM1376.58 1824.25 1404.08 1838 1376.58 1851.75Z" fill="#000000" fill-rule="nonzero" fill-opacity="1"/><path d="M1426.92 1836.85 2125.68 1836.85 2125.68 1839.15 1426.92 1839.15ZM1431.5 1851.75 1404 1838 1431.5 1824.25ZM2121.1 1824.25 2148.6 1838 2121.1 1851.75Z" fill="#000000" fill-rule="nonzero" fill-opacity="1"/><text fill="#44546A" fill-opacity="1" font-family="Cambria Math,Cambria Math_MSFontService,sans-serif" font-style="normal" font-variant="normal" font-weight="400" font-stretch="normal" font-size="83" text-anchor="start" direction="ltr" writing-mode="lr-tb" unicode-bidi="normal" text-decoration="none" transform="translate(796.48 1922)">|<tspan fill="#44546A" fill-opacity="1" font-family="Cambria Math,Cambria Math_MSFontService,sans-serif" font-style="normal" font-variant="normal" font-weight="400" font-stretch="normal" font-size="83" text-anchor="start" direction="ltr" writing-mode="lr-tb" unicode-bidi="normal" text-decoration="none" x="26.3541" y="0">𝑝</tspan><tspan fill="#44546A" fill-opacity="1" font-family="Cambria Math,Cambria Math_MSFontService,sans-serif" font-style="normal" font-variant="normal" font-weight="400" font-stretch="normal" font-size="61" text-anchor="start" direction="ltr" writing-mode="lr-tb" unicode-bidi="normal" text-decoration="none" x="68.9562" y="17">𝑥</tspan><tspan fill="#44546A" fill-opacity="1" font-family="Cambria Math,Cambria Math_MSFontService,sans-serif" font-style="normal" font-variant="normal" font-weight="400" font-stretch="normal" font-size="61" text-anchor="start" direction="ltr" writing-mode="lr-tb" unicode-bidi="normal" text-decoration="none" x="73.9979" y="-30">−</tspan><tspan fill="#44546A" fill-opacity="1" font-family="Cambria Math,Cambria Math_MSFontService,sans-serif" font-style="normal" font-variant="normal" font-weight="400" font-stretch="normal" font-size="83" text-anchor="start" direction="ltr" writing-mode="lr-tb" unicode-bidi="normal" text-decoration="none" x="120.954" y="0">|</tspan><tspan fill="#44546A" fill-opacity="1" font-family="Cambria Math,Cambria Math_MSFontService,sans-serif" font-style="normal" font-variant="normal" font-weight="400" font-stretch="normal" font-size="83" text-anchor="start" direction="ltr" writing-mode="lr-tb" unicode-bidi="normal" text-decoration="none" x="914.203" y="-7">|</tspan><tspan fill="#44546A" fill-opacity="1" font-family="Cambria Math,Cambria Math_MSFontService,sans-serif" font-style="normal" font-variant="normal" font-weight="400" font-stretch="normal" font-size="83" text-anchor="start" direction="ltr" writing-mode="lr-tb" unicode-bidi="normal" text-decoration="none" x="940.558" y="-7">𝑝</tspan><tspan fill="#44546A" fill-opacity="1" font-family="Cambria Math,Cambria Math_MSFontService,sans-serif" font-style="normal" font-variant="normal" font-weight="400" font-stretch="normal" font-size="61" text-anchor="start" direction="ltr" writing-mode="lr-tb" unicode-bidi="normal" text-decoration="none" x="983.16" y="10">𝑥</tspan><tspan fill="#44546A" fill-opacity="1" font-family="Cambria Math,Cambria Math_MSFontService,sans-serif" font-style="normal" font-variant="normal" font-weight="400" font-stretch="normal" font-size="61" text-anchor="start" direction="ltr" writing-mode="lr-tb" unicode-bidi="normal" text-decoration="none" x="988.201" y="-37">+</tspan><tspan fill="#44546A" fill-opacity="1" font-family="Cambria Math,Cambria Math_MSFontService,sans-serif" font-style="normal" font-variant="normal" font-weight="400" font-stretch="normal" font-size="83" text-anchor="start" direction="ltr" writing-mode="lr-tb" unicode-bidi="normal" text-decoration="none" x="1035.16" y="-7">|</tspan><tspan fill="#44546A" fill-opacity="1" font-family="Cambria Math,Cambria Math_MSFontService,sans-serif" font-style="normal" font-variant="normal" font-weight="400" font-stretch="normal" font-size="73" text-anchor="start" direction="ltr" writing-mode="lr-tb" unicode-bidi="normal" text-decoration="none" x="376.692" y="48">∆</tspan><tspan fill="#44546A" fill-opacity="1" font-family="Cambria Math,Cambria Math_MSFontService,sans-serif" font-style="normal" font-variant="normal" font-weight="400" font-stretch="normal" font-size="73" text-anchor="start" direction="ltr" writing-mode="lr-tb" unicode-bidi="normal" text-decoration="none" x="420.233" y="48">(</tspan><tspan fill="#44546A" fill-opacity="1" font-family="Cambria Math,Cambria Math_MSFontService,sans-serif" font-style="normal" font-variant="normal" font-weight="400" font-stretch="normal" font-size="73" text-anchor="start" direction="ltr" writing-mode="lr-tb" unicode-bidi="normal" text-decoration="none" x="450.598" y="48">𝑥</tspan><tspan fill="#44546A" fill-opacity="1" font-family="Cambria Math,Cambria Math_MSFontService,sans-serif" font-style="normal" font-variant="normal" font-weight="400" font-stretch="normal" font-size="73" text-anchor="start" direction="ltr" writing-mode="lr-tb" unicode-bidi="normal" text-decoration="none" x="491.779" y="48">)</tspan></text><path d="M-714.895 1910.99C-717.283 1861.69-712.593 1812.31-700.969 1764.35" stroke="#000000" stroke-width="4.58333" stroke-linecap="butt" stroke-linejoin="miter" stroke-miterlimit="8" stroke-opacity="1" fill="none" fill-rule="evenodd"/><path d="M-1206 1617-223.873 1908.64" stroke="#000000" stroke-width="10.3125" stroke-linecap="butt" stroke-linejoin="miter" stroke-miterlimit="8" stroke-opacity="1" fill="none" fill-rule="evenodd"/><path d="M-1235 1906-231.378 1908.28" stroke="#000000" stroke-width="10.3125" stroke-linecap="butt" stroke-linejoin="miter" stroke-miterlimit="8" stroke-opacity="1" fill="none" fill-rule="evenodd"/><path d="M0 0 188.192 694.033" stroke="#EF0095" stroke-width="10.3125" stroke-linecap="butt" stroke-linejoin="miter" stroke-miterlimit="8" stroke-opacity="1" fill="none" fill-rule="evenodd" transform="matrix(1 0 0 -1 -744 1758.03)"/><path d="M-483.47 1730.8-834 1089" stroke="#EF0095" stroke-width="10.3125" stroke-linecap="butt" stroke-linejoin="miter" stroke-miterlimit="8" stroke-opacity="1" fill="none" fill-rule="evenodd"/><path d="M0 0 588.766 403.357" stroke="#EF0095" stroke-width="10.3125" stroke-linecap="butt" stroke-linejoin="miter" stroke-miterlimit="8" stroke-opacity="1" fill="none" fill-rule="evenodd" transform="matrix(1 0 0 -1 -952 1617.36)"/><path d="M-996 1316-310.522 1498.26" stroke="#EF0095" stroke-width="10.3125" stroke-linecap="butt" stroke-linejoin="miter" stroke-miterlimit="8" stroke-opacity="1" fill="none" fill-rule="evenodd"/><path d="M-704 1408C-704 1379.28-680.943 1356-652.5 1356-624.057 1356-601 1379.28-601 1408-601 1436.72-624.057 1460-652.5 1460-680.943 1460-704 1436.72-704 1408Z" stroke="#EFBBD8" stroke-width="10.3125" stroke-linecap="butt" stroke-linejoin="miter" stroke-miterlimit="8" stroke-opacity="1" fill="#FDE086" fill-rule="evenodd" fill-opacity="1"/><path d="M-925.598 1334.36C-906.182 1262.96-859.526 1201.99-795.625 1164.5" stroke="#000000" stroke-width="4.58333" stroke-linecap="butt" stroke-linejoin="miter" stroke-miterlimit="8" stroke-opacity="1" fill="none" fill-rule="evenodd"/><path d="M0 0 0.000360892 745.883" stroke="#000000" stroke-width="2.29167" stroke-linecap="butt" stroke-linejoin="miter" stroke-miterlimit="8" stroke-opacity="1" fill="none" fill-rule="evenodd" transform="matrix(1 0 0 -1 -744 1730.88)"/><path d="M-744.837 1103.5C-689.432 1103.35-634.425 1112.86-582.295 1131.63" stroke="#000000" stroke-width="4.58333" stroke-linecap="butt" stroke-linejoin="miter" stroke-miterlimit="8" stroke-opacity="1" fill="none" fill-rule="evenodd"/><text fill="#000000" fill-opacity="1" font-family="Cambria Math,Cambria Math_MSFontService,sans-serif" font-style="normal" font-variant="normal" font-weight="400" font-stretch="normal" font-size="92" text-anchor="start" direction="ltr" writing-mode="lr-tb" unicode-bidi="normal" text-decoration="none" transform="translate(-796.508 1858)">𝛾<tspan fill="#000000" fill-opacity="1" font-family="Cambria Math,Cambria Math_MSFontService,sans-serif" font-style="normal" font-variant="normal" font-weight="400" font-stretch="normal" font-size="92" text-anchor="start" direction="ltr" writing-mode="lr-tb" unicode-bidi="normal" text-decoration="none" x="-191.179" y="-608">2𝛼</tspan><tspan fill="#000000" fill-opacity="1" font-family="Cambria Math,Cambria Math_MSFontService,sans-serif" font-style="normal" font-variant="normal" font-weight="400" font-stretch="normal" font-size="92" text-anchor="start" direction="ltr" writing-mode="lr-tb" unicode-bidi="normal" text-decoration="none" x="109.991" y="-761">𝜃</tspan></text><text fill="#000000" fill-opacity="1" font-family="Arial,Arial_MSFontService,sans-serif" font-style="normal" font-variant="normal" font-weight="400" font-stretch="normal" font-size="83" text-anchor="start" direction="ltr" writing-mode="lr-tb" unicode-bidi="normal" text-decoration="none" transform="matrix(1 0 0 1 -1413.06 863)">(a)<tspan fill="#000000" fill-opacity="1" font-family="Arial,Arial_MSFontService,sans-serif" font-style="normal" font-variant="normal" font-weight="400" font-stretch="normal" font-size="83" text-anchor="start" direction="ltr" writing-mode="lr-tb" unicode-bidi="normal" text-decoration="none" x="1631.77" y="1">(b)</tspan><tspan fill="#000000" fill-opacity="1" font-family="Arial,Arial_MSFontService,sans-serif" font-style="normal" font-variant="normal" font-weight="400" font-stretch="normal" font-size="83" text-anchor="start" direction="ltr" writing-mode="lr-tb" unicode-bidi="normal" text-decoration="none" x="4056.38" y="-10">(c)</tspan></text></g></svg>